<?xml version="1.0" encoding="utf-8" standalone="no"?>
<!DOCTYPE svg PUBLIC "-//W3C//DTD SVG 1.1//EN"
  "http://www.w3.org/Graphics/SVG/1.1/DTD/svg11.dtd">
<!-- Created with matplotlib (https://matplotlib.org/) -->
<svg height="288pt" version="1.1" viewBox="0 0 432 288" width="432pt" xmlns="http://www.w3.org/2000/svg" xmlns:xlink="http://www.w3.org/1999/xlink">
 <defs>
  <style type="text/css">
*{stroke-linecap:butt;stroke-linejoin:round;}
  </style>
 </defs>
 <g id="figure_1">
  <g id="patch_1">
   <path d="M 0 288 
L 432 288 
L 432 0 
L 0 0 
z
" style="fill:#ffffff;"/>
  </g>
  <g id="axes_1">
   <g id="patch_2">
    <path clip-path="url(#pd37a76d0f9)" d="M 359.747107 143.280003 
Q 356.034697 132.444749 353.047054 123.724846 
" style="fill:none;stroke:#000000;stroke-linecap:round;stroke-opacity:0.7;stroke-width:2;"/>
    <path clip-path="url(#pd37a76d0f9)" d="M 352.451533 128.157154 
L 353.047054 123.724846 
L 356.235588 126.860649 
L 352.451533 128.157154 
z
" style="fill-opacity:0.7;stroke:#000000;stroke-linecap:round;stroke-opacity:0.7;stroke-width:2;"/>
   </g>
   <g id="patch_3">
    <path clip-path="url(#pd37a76d0f9)" d="M 346.046434 103.292437 
Q 250.166589 88.714125 156.497404 74.47194 
" style="fill:none;stroke:#000000;stroke-linecap:round;stroke-opacity:0.7;stroke-width:2;"/>
    <path clip-path="url(#pd37a76d0f9)" d="M 160.151313 77.050495 
L 156.497404 74.47194 
L 160.752593 73.095945 
L 160.151313 77.050495 
z
" style="fill-opacity:0.7;stroke:#000000;stroke-linecap:round;stroke-opacity:0.7;stroke-width:2;"/>
   </g>
   <g id="patch_4">
    <path clip-path="url(#pd37a76d0f9)" d="M 346.046434 103.292437 
Q 334.283184 93.466077 324.236032 85.073248 
" style="fill:none;stroke:#000000;stroke-linecap:round;stroke-opacity:0.7;stroke-width:2;"/>
    <path clip-path="url(#pd37a76d0f9)" d="M 326.02369 89.172551 
L 324.236032 85.073248 
L 328.588068 86.102703 
L 326.02369 89.172551 
z
" style="fill-opacity:0.7;stroke:#000000;stroke-linecap:round;stroke-opacity:0.7;stroke-width:2;"/>
   </g>
   <g id="patch_5">
    <path clip-path="url(#pd37a76d0f9)" d="M 307.65801 71.224898 
Q 328.029953 99.405507 347.091885 125.773971 
" style="fill:none;stroke:#000000;stroke-linecap:round;stroke-opacity:0.7;stroke-width:2;"/>
    <path clip-path="url(#pd37a76d0f9)" d="M 346.369297 121.360597 
L 347.091885 125.773971 
L 343.127633 123.704016 
L 346.369297 121.360597 
z
" style="fill-opacity:0.7;stroke:#000000;stroke-linecap:round;stroke-opacity:0.7;stroke-width:2;"/>
   </g>
   <g id="patch_6">
    <path clip-path="url(#pd37a76d0f9)" d="M 252.185129 53.42876 
Q 298.536109 92.147769 343.170992 129.433246 
" style="fill:none;stroke:#000000;stroke-linecap:round;stroke-opacity:0.7;stroke-width:2;"/>
    <path clip-path="url(#pd37a76d0f9)" d="M 341.383334 125.333944 
L 343.170992 129.433246 
L 338.818956 128.403791 
L 341.383334 125.333944 
z
" style="fill-opacity:0.7;stroke:#000000;stroke-linecap:round;stroke-opacity:0.7;stroke-width:2;"/>
   </g>
   <g id="patch_7">
    <path clip-path="url(#pd37a76d0f9)" d="M 252.185129 53.42876 
Q 293.442799 110.500699 333.390456 165.760491 
" style="fill:none;stroke:#000000;stroke-linecap:round;stroke-opacity:0.7;stroke-width:2;"/>
    <path clip-path="url(#pd37a76d0f9)" d="M 332.667869 161.347118 
L 333.390456 165.760491 
L 329.426205 163.690537 
L 332.667869 161.347118 
z
" style="fill-opacity:0.7;stroke:#000000;stroke-linecap:round;stroke-opacity:0.7;stroke-width:2;"/>
   </g>
   <g id="patch_8">
    <path clip-path="url(#pd37a76d0f9)" d="M 190.614866 53.42876 
Q 239.565604 60.871606 286.305681 67.978326 
" style="fill:none;stroke:#000000;stroke-linecap:round;stroke-opacity:0.7;stroke-width:2;"/>
    <path clip-path="url(#pd37a76d0f9)" d="M 282.651771 65.399771 
L 286.305681 67.978326 
L 282.050491 69.35432 
L 282.651771 65.399771 
z
" style="fill-opacity:0.7;stroke:#000000;stroke-linecap:round;stroke-opacity:0.7;stroke-width:2;"/>
   </g>
   <g id="patch_9">
    <path clip-path="url(#pd37a76d0f9)" d="M 135.14199 71.224898 
Q 231.021836 85.803209 324.691021 100.045395 
" style="fill:none;stroke:#000000;stroke-linecap:round;stroke-opacity:0.7;stroke-width:2;"/>
    <path clip-path="url(#pd37a76d0f9)" d="M 321.037111 97.46684 
L 324.691021 100.045395 
L 320.435831 101.42139 
L 321.037111 97.46684 
z
" style="fill-opacity:0.7;stroke:#000000;stroke-linecap:round;stroke-opacity:0.7;stroke-width:2;"/>
   </g>
   <g id="patch_10">
    <path clip-path="url(#pd37a76d0f9)" d="M 96.753566 103.292432 
Q 211.717154 103.292434 324.444674 103.292437 
" style="fill:none;stroke:#000000;stroke-linecap:round;stroke-opacity:0.7;stroke-width:2;"/>
    <path clip-path="url(#pd37a76d0f9)" d="M 320.444674 101.292437 
L 324.444674 103.292437 
L 320.444674 105.292437 
L 320.444674 101.292437 
z
" style="fill-opacity:0.7;stroke:#000000;stroke-linecap:round;stroke-opacity:0.7;stroke-width:2;"/>
   </g>
   <g id="patch_11">
    <path clip-path="url(#pd37a76d0f9)" d="M 96.753566 103.292432 
Q 212.181231 140.322545 325.47971 176.6696 
" style="fill:none;stroke:#000000;stroke-linecap:round;stroke-opacity:0.7;stroke-width:2;"/>
    <path clip-path="url(#pd37a76d0f9)" d="M 322.281855 173.543304 
L 325.47971 176.6696 
L 321.059961 177.352107 
L 322.281855 173.543304 
z
" style="fill-opacity:0.7;stroke:#000000;stroke-linecap:round;stroke-opacity:0.7;stroke-width:2;"/>
   </g>
   <g id="patch_12">
    <path clip-path="url(#pd37a76d0f9)" d="M 83.052893 143.280011 
Q 86.765303 132.444753 89.752946 123.724847 
" style="fill:none;stroke:#000000;stroke-linecap:round;stroke-opacity:0.7;stroke-width:2;"/>
    <path clip-path="url(#pd37a76d0f9)" d="M 86.564413 126.86065 
L 89.752946 123.724847 
L 90.348468 128.157155 
L 86.564413 126.86065 
z
" style="fill-opacity:0.7;stroke:#000000;stroke-linecap:round;stroke-opacity:0.7;stroke-width:2;"/>
   </g>
   <g id="patch_13">
    <path clip-path="url(#pd37a76d0f9)" d="M 96.753566 183.267568 
Q 93.041155 172.432317 90.053513 163.712416 
" style="fill:none;stroke:#000000;stroke-linecap:round;stroke-opacity:0.7;stroke-width:2;"/>
    <path clip-path="url(#pd37a76d0f9)" d="M 89.457991 168.144724 
L 90.053513 163.712416 
L 93.242046 166.848218 
L 89.457991 168.144724 
z
" style="fill-opacity:0.7;stroke:#000000;stroke-linecap:round;stroke-opacity:0.7;stroke-width:2;"/>
   </g>
   <g id="patch_14">
    <path clip-path="url(#pd37a76d0f9)" d="M 135.142015 215.335113 
Q 114.770062 187.154505 95.708121 160.786042 
" style="fill:none;stroke:#000000;stroke-linecap:round;stroke-opacity:0.7;stroke-width:2;"/>
    <path clip-path="url(#pd37a76d0f9)" d="M 96.43071 165.199415 
L 95.708121 160.786042 
L 99.672373 162.855995 
L 96.43071 165.199415 
z
" style="fill-opacity:0.7;stroke:#000000;stroke-linecap:round;stroke-opacity:0.7;stroke-width:2;"/>
   </g>
   <g id="patch_15">
    <path clip-path="url(#pd37a76d0f9)" d="M 190.614858 233.13124 
Q 149.357194 176.059301 109.409542 120.799509 
" style="fill:none;stroke:#000000;stroke-linecap:round;stroke-opacity:0.7;stroke-width:2;"/>
    <path clip-path="url(#pd37a76d0f9)" d="M 110.132129 125.212882 
L 109.409542 120.799509 
L 113.373793 122.869463 
L 110.132129 125.212882 
z
" style="fill-opacity:0.7;stroke:#000000;stroke-linecap:round;stroke-opacity:0.7;stroke-width:2;"/>
   </g>
   <g id="patch_16">
    <path clip-path="url(#pd37a76d0f9)" d="M 252.185138 233.13124 
Q 203.234409 225.688399 156.494341 218.581683 
" style="fill:none;stroke:#000000;stroke-linecap:round;stroke-opacity:0.7;stroke-width:2;"/>
    <path clip-path="url(#pd37a76d0f9)" d="M 160.14825 221.160238 
L 156.494341 218.581683 
L 160.74953 217.205688 
L 160.14825 221.160238 
z
" style="fill-opacity:0.7;stroke:#000000;stroke-linecap:round;stroke-opacity:0.7;stroke-width:2;"/>
   </g>
   <g id="patch_17">
    <path clip-path="url(#pd37a76d0f9)" d="M 307.657993 215.335113 
Q 231.083232 215.335113 156.744539 215.335113 
" style="fill:none;stroke:#000000;stroke-linecap:round;stroke-opacity:0.7;stroke-width:2;"/>
    <path clip-path="url(#pd37a76d0f9)" d="M 160.744539 217.335113 
L 156.744539 215.335113 
L 160.744539 213.335113 
L 160.744539 217.335113 
z
" style="fill-opacity:0.7;stroke:#000000;stroke-linecap:round;stroke-opacity:0.7;stroke-width:2;"/>
   </g>
   <g id="patch_18">
    <path clip-path="url(#pd37a76d0f9)" d="M 346.046434 183.267568 
Q 346.046434 152.962051 346.046434 124.892601 
" style="fill:none;stroke:#000000;stroke-linecap:round;stroke-opacity:0.7;stroke-width:2;"/>
    <path clip-path="url(#pd37a76d0f9)" d="M 344.046434 128.892601 
L 346.046434 124.892601 
L 348.046434 128.892601 
L 344.046434 128.892601 
z
" style="fill-opacity:0.7;stroke:#000000;stroke-linecap:round;stroke-opacity:0.7;stroke-width:2;"/>
   </g>
   <g id="PathCollection_1">
    <defs>
     <path d="M 0 19.364917 
C 5.135636 19.364917 10.061621 17.324507 13.693064 13.693064 
C 17.324507 10.061621 19.364917 5.135636 19.364917 0 
C 19.364917 -5.135636 17.324507 -10.061621 13.693064 -13.693064 
C 10.061621 -17.324507 5.135636 -19.364917 0 -19.364917 
C -5.135636 -19.364917 -10.061621 -17.324507 -13.693064 -13.693064 
C -17.324507 -10.061621 -19.364917 -5.135636 -19.364917 0 
C -19.364917 5.135636 -17.324507 10.061621 -13.693064 13.693064 
C -10.061621 17.324507 -5.135636 19.364917 0 19.364917 
z
" id="me5df6b202a" style="stroke:#ffa500;stroke-opacity:0.7;stroke-width:2;"/>
    </defs>
    <g clip-path="url(#pd37a76d0f9)">
     <use style="fill:#ffa500;fill-opacity:0.7;stroke:#ffa500;stroke-opacity:0.7;stroke-width:2;" x="359.747107" xlink:href="#me5df6b202a" y="143.280003"/>
     <use style="fill:#ffa500;fill-opacity:0.7;stroke:#ffa500;stroke-opacity:0.7;stroke-width:2;" x="346.046434" xlink:href="#me5df6b202a" y="103.292437"/>
     <use style="fill:#ffa500;fill-opacity:0.7;stroke:#ffa500;stroke-opacity:0.7;stroke-width:2;" x="307.65801" xlink:href="#me5df6b202a" y="71.224898"/>
     <use style="fill:#ffa500;fill-opacity:0.7;stroke:#ffa500;stroke-opacity:0.7;stroke-width:2;" x="252.185129" xlink:href="#me5df6b202a" y="53.42876"/>
     <use style="fill:#ffa500;fill-opacity:0.7;stroke:#ffa500;stroke-opacity:0.7;stroke-width:2;" x="190.614866" xlink:href="#me5df6b202a" y="53.42876"/>
     <use style="fill:#ffa500;fill-opacity:0.7;stroke:#ffa500;stroke-opacity:0.7;stroke-width:2;" x="135.14199" xlink:href="#me5df6b202a" y="71.224898"/>
     <use style="fill:#ffa500;fill-opacity:0.7;stroke:#ffa500;stroke-opacity:0.7;stroke-width:2;" x="96.753566" xlink:href="#me5df6b202a" y="103.292432"/>
     <use style="fill:#ffa500;fill-opacity:0.7;stroke:#ffa500;stroke-opacity:0.7;stroke-width:2;" x="83.052893" xlink:href="#me5df6b202a" y="143.280011"/>
     <use style="fill:#ffa500;fill-opacity:0.7;stroke:#ffa500;stroke-opacity:0.7;stroke-width:2;" x="96.753566" xlink:href="#me5df6b202a" y="183.267568"/>
     <use style="fill:#ffa500;fill-opacity:0.7;stroke:#ffa500;stroke-opacity:0.7;stroke-width:2;" x="135.142015" xlink:href="#me5df6b202a" y="215.335113"/>
     <use style="fill:#ffa500;fill-opacity:0.7;stroke:#ffa500;stroke-opacity:0.7;stroke-width:2;" x="190.614858" xlink:href="#me5df6b202a" y="233.13124"/>
     <use style="fill:#ffa500;fill-opacity:0.7;stroke:#ffa500;stroke-opacity:0.7;stroke-width:2;" x="252.185138" xlink:href="#me5df6b202a" y="233.13124"/>
     <use style="fill:#ffa500;fill-opacity:0.7;stroke:#ffa500;stroke-opacity:0.7;stroke-width:2;" x="307.657993" xlink:href="#me5df6b202a" y="215.335113"/>
     <use style="fill:#ffa500;fill-opacity:0.7;stroke:#ffa500;stroke-opacity:0.7;stroke-width:2;" x="346.046434" xlink:href="#me5df6b202a" y="183.267568"/>
    </g>
   </g>
   <g id="text_1">
    <g clip-path="url(#pd37a76d0f9)">
     <!-- $C$ -->
     <defs>
      <path d="M 69.484375 67.28125 
L 67.484375 56.890625 
Q 62.796875 61.625 57.546875 63.921875 
Q 52.296875 66.21875 46.1875 66.21875 
Q 37.84375 66.21875 31.515625 62.203125 
Q 25.203125 58.203125 20.609375 50 
Q 17.671875 44.734375 16.125 38.84375 
Q 14.59375 32.953125 14.59375 27 
Q 14.59375 17.046875 19.75 11.8125 
Q 24.90625 6.59375 34.71875 6.59375 
Q 41.5 6.59375 47.75 8.765625 
Q 54 10.9375 59.90625 15.28125 
L 57.625 3.609375 
Q 51.8125 1.125 45.875 -0.140625 
Q 39.9375 -1.421875 33.984375 -1.421875 
Q 19.96875 -1.421875 12.078125 6.1875 
Q 4.203125 13.8125 4.203125 27.390625 
Q 4.203125 36.078125 7.203125 44.46875 
Q 10.203125 52.875 15.828125 59.8125 
Q 21.78125 67.1875 29.421875 70.703125 
Q 37.0625 74.21875 47.21875 74.21875 
Q 53.46875 74.21875 59.0625 72.484375 
Q 64.65625 70.75 69.484375 67.28125 
z
" id="DejaVuSans-Oblique-67"/>
     </defs>
     <g style="opacity:0.7;" transform="translate(354.497107 147.158909)scale(0.15 -0.15)">
      <use transform="translate(0 0.78125)" xlink:href="#DejaVuSans-Oblique-67"/>
     </g>
    </g>
   </g>
   <g id="text_2">
    <g clip-path="url(#pd37a76d0f9)">
     <!-- $Y$ -->
     <defs>
      <path d="M 6.296875 72.90625 
L 16.890625 72.90625 
L 30.515625 42.921875 
L 56.5 72.90625 
L 67.578125 72.90625 
L 34.515625 34.71875 
L 27.78125 0 
L 17.921875 0 
L 24.609375 34.71875 
z
" id="DejaVuSans-Oblique-89"/>
     </defs>
     <g style="opacity:0.7;" transform="translate(341.396434 107.171343)scale(0.15 -0.15)">
      <use transform="translate(0 0.09375)" xlink:href="#DejaVuSans-Oblique-89"/>
     </g>
    </g>
   </g>
   <g id="text_3">
    <g clip-path="url(#pd37a76d0f9)">
     <!-- $W$ -->
     <defs>
      <path d="M 9.625 72.90625 
L 19.1875 72.90625 
L 22.703125 10.890625 
L 50.203125 72.90625 
L 61.1875 72.90625 
L 64.796875 10.890625 
L 92 72.90625 
L 102 72.90625 
L 69.578125 0 
L 57.171875 0 
L 53.8125 60.796875 
L 26.515625 0 
L 14.109375 0 
z
" id="DejaVuSans-Oblique-87"/>
     </defs>
     <g style="opacity:0.7;" transform="translate(300.23301 75.103804)scale(0.15 -0.15)">
      <use transform="translate(0 0.09375)" xlink:href="#DejaVuSans-Oblique-87"/>
     </g>
    </g>
   </g>
   <g id="text_4">
    <g clip-path="url(#pd37a76d0f9)">
     <!-- $C_k$ -->
     <defs>
      <path d="M 18.3125 75.984375 
L 27.296875 75.984375 
L 18.703125 31.6875 
L 49.515625 54.6875 
L 61.1875 54.6875 
L 26.8125 28.515625 
L 51.90625 0 
L 41.015625 0 
L 17.671875 26.703125 
L 12.5 0 
L 3.515625 0 
z
" id="DejaVuSans-Oblique-107"/>
     </defs>
     <g style="opacity:0.7;" transform="translate(243.635129 57.307667)scale(0.15 -0.15)">
      <use transform="translate(0 0.78125)" xlink:href="#DejaVuSans-Oblique-67"/>
      <use transform="translate(69.824219 -15.625)scale(0.7)" xlink:href="#DejaVuSans-Oblique-107"/>
     </g>
    </g>
   </g>
   <g id="text_5">
    <g clip-path="url(#pd37a76d0f9)">
     <!-- $\omega$ -->
     <defs>
      <path d="M 21.390625 -1.421875 
Q 1.125 -1.421875 6.78125 27.59375 
Q 8.984375 39.0625 19.625 54.6875 
L 29.296875 54.6875 
Q 19.234375 39.0625 17 27.34375 
Q 12.796875 6.203125 23.734375 6.203125 
Q 33.84375 6.203125 38.71875 32.46875 
L 47.015625 32.46875 
Q 41.703125 6.0625 51.8125 6.203125 
Q 62.703125 6.296875 66.796875 27.34375 
Q 69.046875 39.0625 65.140625 54.6875 
L 74.8125 54.6875 
Q 79.296875 39.0625 77.09375 27.59375 
Q 71.53125 -1.46875 51.21875 -1.421875 
Q 37.9375 -1.375 39.109375 13.1875 
Q 34.28125 -1.421875 21.390625 -1.421875 
z
" id="DejaVuSans-Oblique-969"/>
     </defs>
     <g style="opacity:0.7;" transform="translate(184.314866 57.307667)scale(0.15 -0.15)">
      <use transform="translate(0 0.3125)" xlink:href="#DejaVuSans-Oblique-969"/>
     </g>
    </g>
   </g>
   <g id="text_6">
    <g clip-path="url(#pd37a76d0f9)">
     <!-- $I_f$ -->
     <defs>
      <path d="M 16.890625 72.90625 
L 26.8125 72.90625 
L 12.59375 0 
L 2.6875 0 
z
" id="DejaVuSans-Oblique-73"/>
      <path d="M 47.796875 75.984375 
L 46.390625 68.5 
L 37.796875 68.5 
Q 32.90625 68.5 30.6875 66.578125 
Q 28.46875 64.65625 27.390625 59.515625 
L 26.421875 54.6875 
L 41.21875 54.6875 
L 39.890625 47.703125 
L 25.09375 47.703125 
L 15.828125 0 
L 6.78125 0 
L 16.109375 47.703125 
L 7.515625 47.703125 
L 8.796875 54.6875 
L 17.390625 54.6875 
L 18.109375 58.5 
Q 19.96875 68.171875 24.625 72.078125 
Q 29.296875 75.984375 39.3125 75.984375 
z
" id="DejaVuSans-Oblique-102"/>
     </defs>
     <g style="opacity:0.7;" transform="translate(130.86699 75.103804)scale(0.15 -0.15)">
      <use transform="translate(0 0.09375)" xlink:href="#DejaVuSans-Oblique-73"/>
      <use transform="translate(29.492188 -16.3125)scale(0.7)" xlink:href="#DejaVuSans-Oblique-102"/>
     </g>
    </g>
   </g>
   <g id="text_7">
    <g clip-path="url(#pd37a76d0f9)">
     <!-- $I_h$ -->
     <defs>
      <path d="M 55.71875 33.015625 
L 49.3125 0 
L 40.28125 0 
L 46.6875 32.671875 
Q 47.125 34.96875 47.359375 36.71875 
Q 47.609375 38.484375 47.609375 39.5 
Q 47.609375 43.609375 45.015625 45.890625 
Q 42.4375 48.1875 37.796875 48.1875 
Q 30.5625 48.1875 25.265625 43.296875 
Q 19.96875 38.421875 18.40625 30.328125 
L 12.5 0 
L 3.515625 0 
L 18.3125 75.984375 
L 27.296875 75.984375 
L 21.484375 46.09375 
Q 24.90625 50.6875 30.21875 53.34375 
Q 35.546875 56 41.40625 56 
Q 48.640625 56 52.609375 52.09375 
Q 56.59375 48.1875 56.59375 41.109375 
Q 56.59375 39.359375 56.375 37.359375 
Q 56.15625 35.359375 55.71875 33.015625 
z
" id="DejaVuSans-Oblique-104"/>
     </defs>
     <g style="opacity:0.7;" transform="translate(90.978566 107.171338)scale(0.15 -0.15)">
      <use transform="translate(0 0.09375)" xlink:href="#DejaVuSans-Oblique-73"/>
      <use transform="translate(29.492188 -16.3125)scale(0.7)" xlink:href="#DejaVuSans-Oblique-104"/>
     </g>
    </g>
   </g>
   <g id="text_8">
    <g clip-path="url(#pd37a76d0f9)">
     <!-- own -->
     <defs>
      <path d="M 51.421875 26.46875 
Q 51.421875 12.59375 45.3125 5.796875 
Q 39.203125 -0.984375 27.59375 -0.984375 
Q 22.078125 -0.984375 17.71875 0.671875 
Q 13.375 2.34375 10.375 5.765625 
Q 7.375 9.1875 5.78125 14.328125 
Q 4.203125 19.484375 4.203125 26.46875 
Q 4.203125 53.8125 27.875 53.8125 
Q 34.03125 53.8125 38.5 52.09375 
Q 42.96875 50.390625 45.828125 46.96875 
Q 48.6875 43.5625 50.046875 38.421875 
Q 51.421875 33.296875 51.421875 26.46875 
z
M 42.1875 26.46875 
Q 42.1875 32.625 41.234375 36.625 
Q 40.28125 40.625 38.453125 43.015625 
Q 36.625 45.40625 33.984375 46.359375 
Q 31.34375 47.3125 28.03125 47.3125 
Q 24.65625 47.3125 21.9375 46.3125 
Q 19.234375 45.3125 17.328125 42.890625 
Q 15.4375 40.484375 14.421875 36.46875 
Q 13.421875 32.46875 13.421875 26.46875 
Q 13.421875 20.3125 14.5 16.28125 
Q 15.578125 12.25 17.453125 9.859375 
Q 19.34375 7.46875 21.90625 6.484375 
Q 24.46875 5.515625 27.484375 5.515625 
Q 30.859375 5.515625 33.59375 6.46875 
Q 36.328125 7.421875 38.234375 9.8125 
Q 40.140625 12.203125 41.15625 16.25 
Q 42.1875 20.3125 42.1875 26.46875 
z
" id="LiberationSans-111"/>
      <path d="M 57.328125 0 
L 47.125 0 
L 38.671875 34.078125 
Q 38.28125 35.40625 37.859375 37.359375 
Q 37.453125 39.3125 37.0625 41.15625 
Q 36.578125 43.3125 36.140625 45.609375 
Q 35.6875 43.40625 35.203125 41.265625 
Q 34.8125 39.40625 34.34375 37.40625 
Q 33.890625 35.40625 33.5 33.890625 
L 24.8125 0 
L 14.65625 0 
L -0.140625 52.828125 
L 8.546875 52.828125 
L 17.484375 16.9375 
Q 17.828125 15.828125 18.15625 14.1875 
Q 18.5 12.546875 18.84375 10.984375 
Q 19.1875 9.1875 19.578125 7.28125 
Q 19.96875 9.125 20.40625 10.890625 
Q 20.796875 12.40625 21.1875 13.96875 
Q 21.578125 15.53125 21.875 16.546875 
L 31.453125 52.828125 
L 40.875 52.828125 
L 50.09375 16.546875 
Q 50.4375 15.28125 50.828125 13.671875 
Q 51.21875 12.0625 51.5625 10.640625 
Q 51.953125 8.984375 52.34375 7.28125 
Q 52.734375 9.125 53.125 10.890625 
Q 53.46875 12.40625 53.828125 14.03125 
Q 54.203125 15.671875 54.546875 16.9375 
L 63.875 52.828125 
L 72.46875 52.828125 
z
" id="LiberationSans-119"/>
      <path d="M 40.28125 0 
L 40.28125 33.5 
Q 40.28125 37.359375 39.71875 39.9375 
Q 39.15625 42.53125 37.890625 44.109375 
Q 36.625 45.703125 34.546875 46.359375 
Q 32.46875 47.015625 29.390625 47.015625 
Q 26.265625 47.015625 23.75 45.921875 
Q 21.234375 44.828125 19.453125 42.75 
Q 17.671875 40.671875 16.6875 37.625 
Q 15.71875 34.578125 15.71875 30.609375 
L 15.71875 0 
L 6.9375 0 
L 6.9375 41.546875 
Q 6.9375 43.21875 6.90625 45.046875 
Q 6.890625 46.875 6.828125 48.5 
Q 6.78125 50.140625 6.734375 51.3125 
Q 6.6875 52.484375 6.640625 52.828125 
L 14.9375 52.828125 
Q 14.984375 52.59375 15.03125 51.515625 
Q 15.09375 50.4375 15.15625 49.046875 
Q 15.234375 47.65625 15.28125 46.21875 
Q 15.328125 44.78125 15.328125 43.796875 
L 15.484375 43.796875 
Q 16.75 46.09375 18.265625 47.953125 
Q 19.78125 49.8125 21.78125 51.09375 
Q 23.78125 52.390625 26.359375 53.09375 
Q 28.953125 53.8125 32.375 53.8125 
Q 36.765625 53.8125 39.9375 52.734375 
Q 43.109375 51.65625 45.15625 49.40625 
Q 47.21875 47.171875 48.171875 43.625 
Q 49.125 40.09375 49.125 35.203125 
L 49.125 0 
z
" id="LiberationSans-110"/>
     </defs>
     <g style="opacity:0.7;" transform="translate(69.29508 147.158917)scale(0.15 -0.15)">
      <use xlink:href="#LiberationSans-111"/>
      <use x="55.615234" xlink:href="#LiberationSans-119"/>
      <use x="127.832031" xlink:href="#LiberationSans-110"/>
     </g>
    </g>
   </g>
   <g id="text_9">
    <g clip-path="url(#pd37a76d0f9)">
     <!-- $\pi$ -->
     <defs>
      <path d="M 9.125 54.6875 
L 61.53125 54.6875 
L 59.765625 45.703125 
L 52.875 45.703125 
L 46.34375 12.109375 
Q 45.65625 8.59375 46.578125 7.03125 
Q 47.46875 5.515625 50.140625 5.515625 
Q 50.875 5.515625 51.953125 5.671875 
Q 53.078125 5.765625 53.421875 5.8125 
L 52.15625 -0.6875 
Q 50.34375 -1.3125 48.484375 -1.609375 
Q 46.578125 -1.90625 44.78125 -1.90625 
Q 38.921875 -1.90625 37.3125 1.265625 
Q 35.6875 4.5 37.359375 13.09375 
L 43.703125 45.703125 
L 23.53125 45.703125 
L 14.65625 0 
L 5.46875 0 
L 14.359375 45.703125 
L 7.375 45.703125 
z
" id="DejaVuSans-Oblique-960"/>
     </defs>
     <g style="opacity:0.7;" transform="translate(92.178566 187.146475)scale(0.15 -0.15)">
      <use transform="translate(0 0.3125)" xlink:href="#DejaVuSans-Oblique-960"/>
     </g>
    </g>
   </g>
   <g id="text_10">
    <g clip-path="url(#pd37a76d0f9)">
     <!-- $rmo$ -->
     <defs>
      <path d="M 44.578125 46.390625 
Q 43.21875 47.125 41.453125 47.515625 
Q 39.703125 47.90625 37.703125 47.90625 
Q 30.515625 47.90625 25.140625 42.453125 
Q 19.78125 37.015625 18.015625 27.875 
L 12.5 0 
L 3.515625 0 
L 14.203125 54.6875 
L 23.1875 54.6875 
L 21.484375 46.1875 
Q 25.046875 50.921875 30 53.453125 
Q 34.96875 56 40.578125 56 
Q 42.046875 56 43.453125 55.828125 
Q 44.875 55.671875 46.296875 55.28125 
z
" id="DejaVuSans-Oblique-114"/>
      <path d="M 89.796875 33.015625 
L 83.40625 0 
L 74.421875 0 
L 80.71875 32.71875 
Q 81.109375 34.8125 81.296875 36.328125 
Q 81.5 37.84375 81.5 38.921875 
Q 81.5 43.3125 79.046875 45.75 
Q 76.609375 48.1875 72.21875 48.1875 
Q 65.671875 48.1875 60.546875 43.28125 
Q 55.421875 38.375 53.90625 30.515625 
L 47.90625 0 
L 38.921875 0 
L 45.3125 32.71875 
Q 45.703125 34.515625 45.890625 36.046875 
Q 46.09375 37.59375 46.09375 38.8125 
Q 46.09375 43.265625 43.65625 45.71875 
Q 41.21875 48.1875 36.921875 48.1875 
Q 30.28125 48.1875 25.140625 43.28125 
Q 20.015625 38.375 18.5 30.515625 
L 12.5 0 
L 3.515625 0 
L 14.203125 54.6875 
L 23.1875 54.6875 
L 21.484375 46.1875 
Q 25.140625 50.984375 30.046875 53.484375 
Q 34.96875 56 40.578125 56 
Q 46.53125 56 50.359375 52.875 
Q 54.203125 49.75 54.984375 44.1875 
Q 59.078125 49.953125 64.46875 52.96875 
Q 69.875 56 75.875 56 
Q 82.90625 56 86.734375 51.953125 
Q 90.578125 47.90625 90.578125 40.484375 
Q 90.578125 38.875 90.375 36.9375 
Q 90.1875 35.015625 89.796875 33.015625 
z
" id="DejaVuSans-Oblique-109"/>
      <path d="M 25.390625 -1.421875 
Q 15.765625 -1.421875 10.171875 4.515625 
Q 4.59375 10.453125 4.59375 20.703125 
Q 4.59375 26.65625 6.515625 32.828125 
Q 8.453125 39.015625 11.53125 43.21875 
Q 16.359375 49.75 22.3125 52.875 
Q 28.265625 56 35.796875 56 
Q 45.125 56 50.859375 50.1875 
Q 56.59375 44.390625 56.59375 35.015625 
Q 56.59375 28.515625 54.6875 22.0625 
Q 52.78125 15.625 49.703125 11.375 
Q 44.921875 4.828125 38.96875 1.703125 
Q 33.015625 -1.421875 25.390625 -1.421875 
z
M 13.921875 21 
Q 13.921875 13.578125 17.015625 9.890625 
Q 20.125 6.203125 26.421875 6.203125 
Q 35.453125 6.203125 41.375 14.078125 
Q 47.3125 21.96875 47.3125 34.078125 
Q 47.3125 41.15625 44.140625 44.765625 
Q 40.96875 48.390625 34.8125 48.390625 
Q 29.734375 48.390625 25.78125 46.015625 
Q 21.828125 43.65625 18.703125 38.8125 
Q 16.40625 35.203125 15.15625 30.5625 
Q 13.921875 25.921875 13.921875 21 
z
" id="DejaVuSans-Oblique-111"/>
     </defs>
     <g style="opacity:0.7;" transform="translate(120.142015 219.21402)scale(0.15 -0.15)">
      <use xlink:href="#DejaVuSans-Oblique-114"/>
      <use transform="translate(41.113281 0)" xlink:href="#DejaVuSans-Oblique-109"/>
      <use transform="translate(138.525391 0)" xlink:href="#DejaVuSans-Oblique-111"/>
     </g>
    </g>
   </g>
   <g id="text_11">
    <g clip-path="url(#pd37a76d0f9)">
     <!-- $\phi_0$ -->
     <defs>
      <path d="M 46.734375 75.984375 
L 42.78125 55.8125 
Q 52.546875 55.8125 57.5625 48.34375 
Q 62.75 40.71875 60.15625 27.296875 
Q 57.515625 13.875 49.359375 6.25 
Q 41.453125 -1.21875 31.6875 -1.21875 
L 27.875 -20.796875 
L 18.953125 -20.796875 
L 22.75 -1.21875 
Q 13.03125 -1.21875 7.953125 6.25 
Q 2.78125 13.875 5.421875 27.296875 
Q 8.015625 40.71875 16.15625 48.34375 
Q 24.125 55.8125 33.84375 55.8125 
L 37.796875 75.984375 
z
M 33.25 6.78125 
Q 38.765625 6.78125 43.5 11.8125 
Q 48.6875 17.4375 50.6875 27.296875 
Q 52.640625 37.0625 49.515625 42.78125 
Q 46.734375 47.796875 41.21875 47.796875 
z
M 24.3125 6.78125 
L 32.28125 47.796875 
Q 26.8125 47.796875 22.078125 42.78125 
Q 16.75 37.0625 14.890625 27.296875 
Q 13.03125 17.4375 16.0625 11.8125 
Q 18.796875 6.78125 24.3125 6.78125 
z
" id="DejaVuSans-Oblique-981"/>
      <path d="M 31.78125 66.40625 
Q 24.171875 66.40625 20.328125 58.90625 
Q 16.5 51.421875 16.5 36.375 
Q 16.5 21.390625 20.328125 13.890625 
Q 24.171875 6.390625 31.78125 6.390625 
Q 39.453125 6.390625 43.28125 13.890625 
Q 47.125 21.390625 47.125 36.375 
Q 47.125 51.421875 43.28125 58.90625 
Q 39.453125 66.40625 31.78125 66.40625 
z
M 31.78125 74.21875 
Q 44.046875 74.21875 50.515625 64.515625 
Q 56.984375 54.828125 56.984375 36.375 
Q 56.984375 17.96875 50.515625 8.265625 
Q 44.046875 -1.421875 31.78125 -1.421875 
Q 19.53125 -1.421875 13.0625 8.265625 
Q 6.59375 17.96875 6.59375 36.375 
Q 6.59375 54.828125 13.0625 64.515625 
Q 19.53125 74.21875 31.78125 74.21875 
z
" id="DejaVuSans-48"/>
     </defs>
     <g style="opacity:0.7;" transform="translate(182.064858 237.25624)scale(0.15 -0.15)">
      <use transform="translate(0 0.015625)" xlink:href="#DejaVuSans-Oblique-981"/>
      <use transform="translate(65.966797 -16.390625)scale(0.7)" xlink:href="#DejaVuSans-48"/>
     </g>
    </g>
   </g>
   <g id="text_12">
    <g clip-path="url(#pd37a76d0f9)">
     <!-- $rm$ -->
     <g style="opacity:0.7;" transform="translate(241.760138 237.010146)scale(0.15 -0.15)">
      <use xlink:href="#DejaVuSans-Oblique-114"/>
      <use transform="translate(41.113281 0)" xlink:href="#DejaVuSans-Oblique-109"/>
     </g>
    </g>
   </g>
   <g id="text_13">
    <g clip-path="url(#pd37a76d0f9)">
     <!-- $\sigma_{mo}$ -->
     <defs>
      <path d="M 34.671875 47.5625 
Q 27.25 47.5625 22.21875 42.1875 
Q 16.890625 36.578125 15.140625 27.296875 
Q 13.1875 17.484375 16.3125 11.8125 
Q 19.390625 6.203125 26.65625 6.203125 
Q 33.84375 6.203125 39.109375 11.859375 
Q 44.4375 17.53125 46.34375 27.296875 
Q 48.046875 36.234375 45.015625 42.1875 
Q 42.1875 47.5625 34.671875 47.5625 
z
M 36.078125 54.734375 
L 65.921875 54.6875 
L 64.15625 45.703125 
L 54.109375 45.703125 
Q 57.90625 38.09375 55.859375 27.296875 
Q 53.21875 13.875 45.0625 6.25 
Q 36.859375 -1.421875 25.140625 -1.421875 
Q 13.375 -1.421875 8.203125 6.25 
Q 3.03125 13.875 5.671875 27.296875 
Q 8.25 40.765625 16.40625 48.390625 
Q 23.1875 54.734375 36.078125 54.734375 
z
" id="DejaVuSans-Oblique-963"/>
     </defs>
     <g style="opacity:0.7;" transform="translate(294.307993 219.21402)scale(0.15 -0.15)">
      <use transform="translate(0 0.265625)" xlink:href="#DejaVuSans-Oblique-963"/>
      <use transform="translate(63.378906 -16.140625)scale(0.7)" xlink:href="#DejaVuSans-Oblique-109"/>
      <use transform="translate(131.567383 -16.140625)scale(0.7)" xlink:href="#DejaVuSans-Oblique-111"/>
     </g>
    </g>
   </g>
   <g id="text_14">
    <g clip-path="url(#pd37a76d0f9)">
     <!-- $Z$ -->
     <defs>
      <path d="M 13.09375 72.90625 
L 70.3125 72.90625 
L 68.890625 65.375 
L 12.40625 8.296875 
L 58.890625 8.296875 
L 57.328125 0 
L -2.203125 0 
L -0.78125 7.515625 
L 55.71875 64.59375 
L 11.53125 64.59375 
z
" id="DejaVuSans-Oblique-90"/>
     </defs>
     <g style="opacity:0.7;" transform="translate(340.871434 187.146475)scale(0.15 -0.15)">
      <use transform="translate(0 0.09375)" xlink:href="#DejaVuSans-Oblique-90"/>
     </g>
    </g>
   </g>
  </g>
 </g>
 <defs>
  <clipPath id="pd37a76d0f9">
   <rect height="217.44" width="334.8" x="54" y="34.56"/>
  </clipPath>
 </defs>
</svg>
